<svg width="112" height="112" viewBox="0 0 112 112" fill="none" xmlns="http://www.w3.org/2000/svg">
<rect y="55.605" width="78.6371" height="78.6371" rx="20" transform="rotate(-45 0 55.605)" fill="#FFCECE"/>
<path d="M67.2494 62.0108C66.3453 62.0108 65.4865 62.3757 64.8385 63.0358C64.1906 63.7037 63.829 64.5735 63.829 65.5054C63.829 66.4373 64.1831 67.307 64.8385 67.9749C65.494 68.635 66.3453 69 67.2494 69C69.1028 69 70.6097 67.4313 70.6097 65.5054C70.6097 63.5795 69.1028 62.0108 67.2494 62.0108ZM67.2494 67.4468C66.2097 67.4468 65.3358 66.5615 65.3358 65.5054C65.3358 64.4492 66.2097 63.5639 67.2494 63.5639C68.2741 63.5639 69.1028 64.4337 69.1028 65.5054C69.1028 66.5771 68.2741 67.4468 67.2494 67.4468ZM68.1234 50.3698C67.9878 50.2378 67.807 50.1679 67.6186 50.1679H63.7536C63.3392 50.1679 63.0002 50.5173 63.0002 50.9444V57.3124C63.0002 57.7395 63.3392 58.089 63.7536 58.089H69.8864C70.3008 58.089 70.6398 57.7395 70.6398 57.3124V53.049C70.6398 52.8315 70.5494 52.6219 70.3912 52.4743L68.1234 50.3698ZM69.133 56.5358H64.507V51.7133H67.3248L69.133 53.3907V56.5358ZM48.8512 62.0108C47.9471 62.0108 47.0882 62.3757 46.4402 63.0358C45.7923 63.7037 45.4307 64.5735 45.4307 65.5054C45.4307 66.4373 45.7848 67.307 46.4402 67.9749C47.0957 68.635 47.9471 69 48.8512 69C50.7045 69 52.2114 67.4313 52.2114 65.5054C52.2114 63.5795 50.7045 62.0108 48.8512 62.0108ZM48.8512 67.4468C47.8114 67.4468 46.9375 66.5615 46.9375 65.5054C46.9375 64.4492 47.8114 63.5639 48.8512 63.5639C49.8758 63.5639 50.7045 64.4337 50.7045 65.5054C50.7045 66.5771 49.8758 67.4468 48.8512 67.4468ZM43.8259 62.966H42.3115V60.9002C42.3115 60.4731 41.9725 60.1237 41.5581 60.1237C41.1438 60.1237 40.8047 60.4731 40.8047 60.9002V63.7425C40.8047 64.1697 41.1438 64.5191 41.5581 64.5191H43.8259C44.2403 64.5191 44.5793 64.1697 44.5793 63.7425C44.5793 63.3154 44.2403 62.966 43.8259 62.966ZM47.6457 58.7336C47.6457 58.3065 47.3067 57.957 46.8923 57.957H37.7534C37.339 57.957 37 58.3065 37 58.7336C37 59.1607 37.339 59.5102 37.7534 59.5102H46.8923C47.3067 59.5102 47.6457 59.1685 47.6457 58.7336ZM39.2828 55.9301L48.4217 55.9845C48.8361 55.9845 49.1751 55.6428 49.1827 55.2157C49.1902 54.7808 48.8512 54.4313 48.4368 54.4313L39.2979 54.3769C39.2904 54.3769 39.2904 54.3769 39.2904 54.3769C38.876 54.3769 38.537 54.7186 38.537 55.1458C38.5294 55.5806 38.8685 55.9301 39.2828 55.9301ZM40.8198 52.4044H49.9587C50.373 52.4044 50.7121 52.055 50.7121 51.6278C50.7121 51.2007 50.373 50.8513 49.9587 50.8513H40.8198C40.4054 50.8513 40.0664 51.2007 40.0664 51.6278C40.0664 52.055 40.4054 52.4044 40.8198 52.4044ZM73.7212 51.356L68.3268 46.7509C68.1912 46.6344 68.0255 46.5723 67.8446 46.5723H61.5009V43.7766C61.5009 43.3495 61.1619 43 60.7475 43H41.5581C41.1438 43 40.8047 43.3495 40.8047 43.7766V49.4612C40.8047 49.8883 41.1438 50.2378 41.5581 50.2378C41.9725 50.2378 42.3115 49.8883 42.3115 49.4612V44.5532H60.0016V62.966H53.8237C53.4093 62.966 53.0703 63.3154 53.0703 63.7425C53.0703 64.1697 53.4093 64.5191 53.8237 64.5191H63.0228C63.4372 64.5191 63.7762 64.1697 63.7762 63.7425C63.7762 63.3154 63.4372 62.966 63.0228 62.966H61.5084V48.1254H67.5809L72.4932 52.319L72.4404 62.9504H71.6569C71.2425 62.9504 70.9035 63.2999 70.9035 63.727C70.9035 64.1541 71.2425 64.5036 71.6569 64.5036H73.1863C73.6007 64.5036 73.9397 64.1619 73.9397 63.7348L74 51.9618C73.9925 51.7288 73.8945 51.5036 73.7212 51.356Z" fill="black"/>
</svg>
