<svg width="112" height="112" viewBox="0 0 112 112" fill="none" xmlns="http://www.w3.org/2000/svg">
<rect y="55.605" width="78.6371" height="78.6371" rx="20" transform="rotate(-45 0 55.605)" fill="#FFCECE"/>
<path d="M58.7975 53.4688C59.1613 53.4688 59.4566 53.18 59.4566 52.8242C59.4566 52.4685 59.1613 52.1797 58.7975 52.1797C58.433 52.1797 58.1384 52.4685 58.1384 52.8242C58.1384 53.18 58.433 53.4688 58.7975 53.4688Z" fill="black"/>
<path d="M52.2066 53.4688C52.5704 53.4688 52.8657 53.18 52.8657 52.8242C52.8657 52.4685 52.5704 52.1797 52.2066 52.1797C51.842 52.1797 51.5475 52.4685 51.5475 52.8242C51.5475 53.18 51.842 53.4688 52.2066 53.4688Z" fill="black"/>
<path d="M41 68.9408V70.3555C41 70.7115 41.295 71 41.6591 71H69.3409C69.705 71 70 70.7115 70 70.3555V68.9395C70 66.3762 68.5276 64.0073 65.8027 63.0348C66.7874 62.1936 67.386 60.9614 67.386 59.6291C67.386 59.2733 67.091 58.9845 66.7269 58.9845C65.1415 58.9845 63.8053 57.8881 63.4835 56.4336H65.3884C66.4775 56.4336 67.3636 55.5662 67.3636 54.5V51.5352C67.3636 50.6945 66.8124 49.9777 66.0455 49.7121V48.3125C66.0455 42.6263 61.3157 38 55.5021 38C49.675 38 44.9545 42.6117 44.9545 48.3125V49.7131C44.1876 49.9797 43.6364 50.6963 43.6364 51.5352V54.5C43.6364 55.5662 44.5243 56.4336 45.6157 56.4336H47.5165C47.1952 57.8881 45.8603 58.9845 44.2764 58.9845C43.9124 58.9845 43.6173 59.2733 43.6173 59.6291C43.6173 60.9632 44.2174 62.1966 45.2048 63.0383C42.4904 64.0116 41 66.4044 41 68.9408ZM66.0122 60.2197C65.807 61.3006 65.0465 62.218 63.9837 62.6302L59.9908 62.1231L59.5642 60.4926C60.809 59.7648 61.801 58.7363 62.4658 57.529C63.086 58.9344 64.4181 59.9768 66.0122 60.2197ZM60.7846 49.6016C58.9638 49.6016 57.4824 48.1348 57.4824 46.3318C57.4824 45.9758 57.1874 45.6873 56.8233 45.6873C56.4595 45.6873 56.1642 45.9758 56.1642 46.3318C56.1642 48.1348 54.6828 49.6016 52.8616 49.6016H48.9112C48.9112 46.0476 51.8678 43.1562 55.5021 43.1562C59.1433 43.1562 62.093 46.038 62.093 49.6016H60.7846ZM48.9091 50.8906H52.8616C54.5412 50.8906 56.0144 50.0021 56.8233 48.6763C57.6323 50.0021 59.1052 50.8906 60.7846 50.8906H62.0909V53.8555C62.0909 56.2934 60.7102 58.4956 58.4878 59.6026C57.5579 60.0659 56.5533 60.3008 55.5021 60.3008C54.4537 60.3008 53.4522 60.0676 52.5248 59.6079C51.9025 59.2995 51.3359 58.8977 50.8403 58.4128C49.595 57.1957 48.9091 55.5771 48.9091 53.8555V50.8906ZM52.6605 61.0757C53.5629 61.4166 54.5155 61.5898 55.5021 61.5898C56.4925 61.5898 57.4487 61.4151 58.3549 61.0707L58.7733 62.6707C58.5537 64.2664 57.1694 65.457 55.5085 65.457C53.8479 65.457 52.4635 64.2669 52.2434 62.6717L52.6605 61.0757ZM66.0455 54.5C66.0455 54.8555 65.7507 55.1445 65.3884 55.1445H63.4091V50.8906H65.3884C65.7507 50.8906 66.0455 51.1797 66.0455 51.5352V54.5ZM55.5021 39.2891C60.5889 39.2891 64.7273 43.337 64.7273 48.3125V49.6016H63.4111C63.4111 45.3283 59.8745 41.8672 55.5021 41.8672C51.141 41.8672 47.593 45.3368 47.593 49.6016H46.2727V48.3125C46.2727 43.3269 50.4011 39.2891 55.5021 39.2891ZM44.9545 54.5V51.5352C44.9545 51.1804 45.2506 50.8914 45.6157 50.8906H47.5909V55.1445H45.6157C45.2511 55.1445 44.9545 54.8555 44.9545 54.5ZM48.5353 57.5273C48.8965 58.1799 49.3563 58.7851 49.9083 59.3244C50.3727 59.7789 50.8905 60.1716 51.4507 60.4987L51.0262 62.1233L47.0222 62.6314C45.9581 62.219 45.1966 61.3011 44.9911 60.2197C46.5848 59.9765 47.9161 58.9332 48.5353 57.5273ZM46.9524 63.9399L47.025 63.9308C47.0255 63.9305 47.0266 63.9305 47.0271 63.9305L51.0555 63.4195C51.5892 65.3588 53.3878 66.7461 55.5085 66.7461C57.6292 66.7461 59.4275 65.3588 59.961 63.4192C60.1618 63.4449 58.9028 63.285 64.0638 63.9401C66.9532 64.3072 68.6818 66.4248 68.6818 68.9395V69.7109H42.3182V68.9408C42.3182 66.4732 44.0457 64.309 46.9524 63.9399Z" fill="black"/>
<path d="M53.74 57.8989C54.2933 58.154 54.8862 58.2834 55.5018 58.2834C56.1032 58.2834 56.6843 58.1592 57.2296 57.9145C57.5604 57.7662 57.7054 57.3835 57.5535 57.06C57.4018 56.7365 57.0105 56.5945 56.6796 56.743C56.3081 56.9097 55.9119 56.9943 55.502 56.9943C55.0821 56.9943 54.6782 56.9064 54.302 56.733C53.9727 56.5812 53.5801 56.7191 53.4249 57.0411C53.2696 57.3631 53.4107 57.7474 53.74 57.8989Z" fill="black"/>
<path d="M61.4339 68.0352H64.0702C64.4343 68.0352 64.7293 67.7466 64.7293 67.3906C64.7293 67.0346 64.4343 66.7461 64.0702 66.7461H61.4339C61.0698 66.7461 60.7748 67.0346 60.7748 67.3906C60.7748 67.7466 61.0698 68.0352 61.4339 68.0352Z" fill="black"/>
<path d="M66.7045 66.7461C67.0683 66.7461 67.3636 67.0349 67.3636 67.3906C67.3636 67.7464 67.0683 68.0352 66.7045 68.0352C66.3408 68.0352 66.0455 67.7464 66.0455 67.3906C66.0455 67.0349 66.3408 66.7461 66.7045 66.7461Z" fill="black"/>
</svg>
