<svg width="112" height="112" viewBox="0 0 112 112" fill="none" xmlns="http://www.w3.org/2000/svg">
<rect y="55.605" width="78.6371" height="78.6371" rx="20" transform="rotate(-45 0 55.605)" fill="#FFCECE"/>
<path d="M67.0797 47.2134H44.9204C44.5163 47.2134 44.1887 47.5441 44.1887 47.9522V59.1111C44.1887 59.5192 44.5163 59.8499 44.9204 59.8499C45.3245 59.8499 45.6521 59.5192 45.6521 59.1111V48.691H66.3479V59.111C66.3479 59.5191 66.6756 59.8499 67.0797 59.8499C67.4838 59.8499 67.8114 59.5191 67.8114 59.111V47.9521C67.8113 47.5441 67.4837 47.2134 67.0797 47.2134Z" fill="black"/>
<path d="M72.3415 61.7493H70.9938V46.2333C70.9938 45.0019 70.0016 44 68.7819 44H43.2181C41.9984 44 41.0063 45.0019 41.0063 46.2333V61.7493H39.6586C39.2948 61.7493 39 62.0469 39 62.4142V63.7196C39 65.5284 40.4574 67 42.2489 67H69.7511C71.5426 67 73 65.5284 73 63.7196V62.4142C73.0001 62.0469 72.7053 61.7493 72.3415 61.7493ZM42.4697 46.2333C42.4697 45.8167 42.8055 45.4776 43.2181 45.4776H68.7818C69.1946 45.4776 69.5303 45.8166 69.5303 46.2333V61.7493H59.6224C59.5758 61.7478 59.5276 61.7518 59.4798 61.7611C59.1698 61.8213 58.9458 62.0953 58.9458 62.414C58.9458 62.9753 58.4936 63.4318 57.9378 63.4318H54.0623C53.5064 63.4318 53.0543 62.9752 53.0543 62.414C53.0543 62.0416 52.7488 61.7412 52.3805 61.7492H42.4697V46.2333ZM71.683 63.7196C71.683 64.7952 70.8163 65.6701 69.7512 65.6701H42.2489C41.1837 65.6701 40.3171 64.7952 40.3171 63.7196V63.0792H51.8322C52.1169 64.0508 53.0089 64.7618 54.0622 64.7618H57.9378C58.9911 64.7618 59.8831 64.0508 60.1679 63.0792H71.683L71.683 63.7196Z" fill="black"/>
<path d="M57.0845 51.508C56.7987 51.2194 56.3355 51.2194 56.0496 51.508L51.4479 56.1546C51.1621 56.4431 51.1621 56.9109 51.4479 57.1995C51.5908 57.3438 51.778 57.4158 51.9652 57.4158C52.1525 57.4158 52.3397 57.3436 52.4826 57.1995L57.0845 52.5529C57.3703 52.2644 57.3703 51.7966 57.0845 51.508Z" fill="black"/>
<path d="M59.8121 54.2006C59.5263 53.9121 59.0631 53.9121 58.7773 54.2006L56.944 56.0516C56.6583 56.3401 56.6583 56.808 56.944 57.0966C57.0869 57.2408 57.2742 57.3129 57.4614 57.3129C57.6487 57.3129 57.8359 57.2408 57.9788 57.0966L59.812 55.2455C60.0978 54.957 60.0978 54.4892 59.8121 54.2006Z" fill="black"/>
</svg>
