<svg width="213" height="32" viewBox="0 0 213 32" fill="none" xmlns="http://www.w3.org/2000/svg">
<path d="M4.73086 19.24C4.73086 22.74 5.86253 25.05 8.12586 26.17C8.68586 26.24 9.42086 26.275 10.3309 26.275C11.2642 26.275 12.2442 26.1 13.2709 25.75C14.2975 25.4 15.0909 24.9683 15.6509 24.455C16.8409 23.3583 17.5875 22.4133 17.8909 21.62L18.0659 21.095L18.7659 21.375C18.6025 21.9117 18.2875 22.53 17.8209 23.23C17.3542 23.93 16.8175 24.525 16.2109 25.015C15.6275 25.505 14.7642 25.9483 13.6209 26.345C12.5009 26.765 11.2525 26.975 9.87586 26.975C6.93586 26.975 4.64919 26.1233 3.01586 24.42C1.40586 22.7167 0.60086 20.3133 0.60086 17.21C0.60086 12.9867 1.96586 9.51 4.69586 6.78C7.42586 4.05 11.0075 2.685 15.4409 2.685C17.4942 2.685 18.9759 3.05833 19.8859 3.805C20.7959 4.52833 21.2509 5.67167 21.2509 7.235C21.2509 8.285 20.7375 9.58 19.7109 11.12C18.7775 12.6133 18.3109 13.78 18.3109 14.62H17.5409C17.5409 14.1533 17.6342 13.6517 17.8209 13.115C18.0075 12.5783 18.1709 12.1933 18.3109 11.96C18.4509 11.7267 18.7075 11.3067 19.0809 10.7C19.9909 9.32333 20.4459 8.19167 20.4459 7.305C20.4459 5.43833 19.6759 4.26 18.1359 3.77C17.4125 3.53667 16.6542 3.42 15.8609 3.42C15.0675 3.42 14.2275 3.46667 13.3409 3.56C12.5242 3.81667 11.7425 4.155 10.9959 4.575C10.2725 4.97167 9.51419 5.59 8.72086 6.43C7.92753 7.24667 7.25086 8.20333 6.69086 9.3C6.13086 10.3967 5.66419 11.8083 5.29086 13.535C4.91753 15.2383 4.73086 17.14 4.73086 19.24ZM35.0953 23.615C35.6553 23.615 36.2386 23.2883 36.8453 22.635L37.3703 23.055C37.2069 23.3817 36.8453 23.6733 36.2853 23.93C35.7253 24.1867 35.1069 24.315 34.4303 24.315C32.3069 24.315 31.2453 23.3583 31.2453 21.445C31.2453 20.6283 31.4553 19.17 31.8753 17.07C32.2953 14.97 32.5053 13.5933 32.5053 12.94C32.5053 11.9367 32.0269 11.435 31.0703 11.435C30.2769 11.435 29.5069 11.9717 28.7603 13.045C28.0369 14.1183 27.4419 15.5767 26.9753 17.42L25.8203 24H21.6203L25.5053 2.02C24.8053 2.09 24.2219 2.41667 23.7553 3L23.2303 2.58C23.9303 1.74 24.8053 1.32 25.8553 1.32C26.9286 1.32 27.7569 1.58833 28.3403 2.125C28.9236 2.66167 29.2153 3.42 29.2153 4.4C29.2153 4.58667 29.1919 4.89 29.1453 5.31L27.6753 13.605C28.6319 11.4583 30.1136 10.385 32.1203 10.385C33.4969 10.385 34.5703 10.7817 35.3403 11.575C36.1103 12.345 36.4953 13.4183 36.4953 14.795C36.4953 15.5183 36.2736 16.9183 35.8303 18.995C35.3869 21.0483 35.1419 22.5883 35.0953 23.615ZM51.3809 24.315C49.3276 24.315 48.2076 23.4167 48.0209 21.62C46.9943 23.4167 45.6993 24.315 44.1359 24.315C42.5726 24.315 41.3243 23.8483 40.3909 22.915C39.4809 21.9583 39.0259 20.6283 39.0259 18.925C39.0259 16.265 39.6793 14.1767 40.9859 12.66C42.2926 11.1433 43.9843 10.385 46.0609 10.385C47.7643 10.385 48.8959 11.19 49.4559 12.8C49.5726 12.1 49.7009 11.4 49.8409 10.7C51.5676 10.7 52.8509 10.63 53.6909 10.49L54.1459 10.385L51.7309 23.615C52.4309 23.545 53.0143 23.2183 53.4809 22.635L54.0059 23.055C53.3059 23.895 52.4309 24.315 51.3809 24.315ZM42.9809 20.71C42.9809 21.76 43.1093 22.495 43.3659 22.915C43.6459 23.3117 44.0659 23.51 44.6259 23.51C45.1859 23.51 45.7576 23.2067 46.3409 22.6C47.1109 21.8067 47.7293 20.8033 48.1959 19.59C48.2659 19.2867 48.3943 18.5633 48.5809 17.42C48.7909 16.2533 48.9659 15.2967 49.1059 14.55C49.0359 13.6633 48.7909 12.8933 48.3709 12.24C47.9509 11.5867 47.4259 11.26 46.7959 11.26C45.6526 11.26 44.7309 12.2867 44.0309 14.34C43.3309 16.37 42.9809 18.4933 42.9809 20.71ZM56.1891 11.645C56.8891 10.805 57.7641 10.385 58.8141 10.385C59.8874 10.385 60.7157 10.6533 61.2991 11.19C61.8824 11.7267 62.1741 12.485 62.1741 13.465V13.675C63.2241 11.4817 64.5891 10.385 66.2691 10.385C68.0657 10.385 68.9641 11.3183 68.9641 13.185C68.9641 13.955 68.7074 14.7717 68.1941 15.635C67.6807 16.4983 67.1674 17.3267 66.6541 18.12C66.1407 18.89 65.8841 19.5783 65.8841 20.185H65.0441C65.0441 19.3217 65.5457 18.155 66.5491 16.685C67.5524 15.215 68.0541 14.0833 68.0541 13.29C68.0541 12.4733 67.8907 11.925 67.5641 11.645C67.2607 11.3417 66.7941 11.19 66.1641 11.19C65.5574 11.19 64.9507 11.4583 64.3441 11.995C63.7607 12.5317 63.2707 13.2083 62.8741 14.025C62.2441 15.2383 61.8241 16.23 61.6141 17V17.035L60.3541 24H56.1541L58.4641 11.085C57.7641 11.155 57.1807 11.4817 56.7141 12.065L56.1891 11.645ZM83.0201 23.615C83.5801 23.615 84.1635 23.2883 84.7701 22.635L85.2951 23.055C85.1318 23.3817 84.7701 23.6733 84.2101 23.93C83.6501 24.1867 83.0318 24.315 82.3551 24.315C80.2318 24.315 79.1701 23.3583 79.1701 21.445C79.1701 20.6283 79.3801 19.17 79.8001 17.07C80.2201 14.97 80.4301 13.5933 80.4301 12.94C80.4301 11.9367 79.9518 11.435 78.9951 11.435C77.5485 11.435 76.3351 13.29 75.3551 17L74.0951 24H69.8951L72.2051 11.085C71.5051 11.155 70.9218 11.4817 70.4551 12.065L69.9301 11.645C70.6301 10.805 71.5051 10.385 72.5551 10.385C73.6285 10.385 74.4568 10.6533 75.0401 11.19C75.6235 11.7267 75.9151 12.485 75.9151 13.465V13.57C76.8251 11.4467 78.2018 10.385 80.0451 10.385C81.3518 10.385 82.3785 10.7467 83.1251 11.47C83.8951 12.17 84.3151 13.1617 84.3851 14.445C84.8285 13.1617 85.3885 12.17 86.0651 11.47C86.7418 10.7467 87.7218 10.385 89.0051 10.385C90.2885 10.385 91.3151 10.7817 92.0851 11.575C92.8551 12.345 93.2401 13.4183 93.2401 14.795C93.2401 15.5183 93.0185 16.9183 92.5751 18.995C92.1318 21.0483 91.8868 22.5883 91.8401 23.615C92.4001 23.615 92.9835 23.2883 93.5901 22.635L94.1151 23.055C93.9518 23.3817 93.5901 23.6733 93.0301 23.93C92.4701 24.1867 91.8518 24.315 91.1751 24.315C89.0518 24.315 87.9901 23.3583 87.9901 21.445C87.9901 20.6283 88.2001 19.17 88.6201 17.07C89.0401 14.97 89.2501 13.5933 89.2501 12.94C89.2501 11.9367 88.7718 11.435 87.8151 11.435C86.1351 11.435 84.7818 13.9317 83.7551 18.925C83.3118 21.0483 83.0668 22.6117 83.0201 23.615ZM102.239 23.055C101.539 23.895 100.664 24.315 99.6142 24.315C98.5642 24.315 97.7359 24.0467 97.1292 23.51C96.5459 22.9733 96.2542 22.2733 96.2542 21.41C96.2542 21.1067 96.4409 19.835 96.8142 17.595L97.9692 11.33H96.4992L96.5692 10.7H98.0742C99.8009 10.7 101.073 10.63 101.889 10.49L102.379 10.385L99.9642 23.615C100.664 23.545 101.248 23.2183 101.714 22.635L102.239 23.055ZM99.1592 7.025C98.6692 6.535 98.4242 5.94 98.4242 5.24C98.4242 4.54 98.6692 3.945 99.1592 3.455C99.6492 2.94167 100.244 2.685 100.944 2.685C101.644 2.685 102.239 2.94167 102.729 3.455C103.243 3.945 103.499 4.54 103.499 5.24C103.499 5.94 103.243 6.535 102.729 7.025C102.239 7.515 101.644 7.76 100.944 7.76C100.244 7.76 99.6492 7.515 99.1592 7.025ZM117.786 23.615C118.346 23.615 118.929 23.2883 119.536 22.635L120.061 23.055C119.897 23.3817 119.536 23.6733 118.976 23.93C118.416 24.1867 117.797 24.315 117.121 24.315C114.997 24.315 113.936 23.3583 113.936 21.445C113.936 20.6283 114.146 19.17 114.566 17.07C114.986 14.97 115.196 13.5933 115.196 12.94C115.196 11.9367 114.717 11.435 113.761 11.435C112.991 11.435 112.244 11.9367 111.521 12.94C110.821 13.9433 110.237 15.32 109.771 17.07L108.581 23.615C109.304 23.545 109.899 23.2183 110.366 22.635L110.891 23.055C110.191 23.895 109.316 24.315 108.266 24.315C107.216 24.315 106.387 24.0467 105.781 23.51C105.197 22.9733 104.906 22.2733 104.906 21.41C104.906 21.0833 105.092 19.8 105.466 17.56L106.621 11.085C105.921 11.155 105.337 11.4817 104.871 12.065L104.346 11.645C105.046 10.805 105.921 10.385 106.971 10.385C108.044 10.385 108.872 10.6533 109.456 11.19C110.039 11.7267 110.331 12.485 110.331 13.465V13.675C111.287 11.4817 112.781 10.385 114.811 10.385C116.187 10.385 117.261 10.7817 118.031 11.575C118.801 12.345 119.186 13.4183 119.186 14.795C119.186 15.5183 118.964 16.9183 118.521 18.995C118.077 21.0483 117.832 22.5883 117.786 23.615ZM133.222 27.815C134.062 27.815 134.785 27.4883 135.392 26.835L135.882 27.255C135.322 28.0483 134.435 28.445 133.222 28.445C132.708 28.445 132.183 28.3867 131.647 28.27C130.06 29.7167 128.03 30.44 125.557 30.44C124.087 30.44 122.943 30.1833 122.127 29.67C121.333 29.18 120.937 28.5267 120.937 27.71C120.937 26.9167 121.182 26.275 121.672 25.785C122.185 25.3183 123.083 25.085 124.367 25.085C125.65 25.085 127.342 25.61 129.442 26.66L130.527 20.85C129.477 22.7867 128.123 23.755 126.467 23.755C123.293 23.755 121.707 22.1917 121.707 19.065C121.707 16.4517 122.36 14.3517 123.667 12.765C124.997 11.1783 126.688 10.385 128.742 10.385C129.932 10.385 130.853 10.7467 131.507 11.47C131.693 11.68 131.88 11.995 132.067 12.415L132.382 10.7C134.108 10.7 135.368 10.63 136.162 10.49L136.617 10.385L134.307 23.3C133.957 25.12 133.257 26.59 132.207 27.71C132.51 27.78 132.848 27.815 133.222 27.815ZM125.662 20.15C125.662 21.2233 125.767 21.9467 125.977 22.32C126.187 22.67 126.583 22.845 127.167 22.845C127.75 22.845 128.345 22.53 128.952 21.9C129.558 21.27 129.99 20.6867 130.247 20.15C130.527 19.59 130.76 19.0533 130.947 18.54L131.682 14.515V14.27C131.682 12.1233 130.702 11.05 128.742 11.05C127.995 11.05 127.295 12.065 126.642 14.095C125.988 16.125 125.662 18.1433 125.662 20.15ZM125.417 29.74C127.283 29.74 128.543 28.935 129.197 27.325L128.707 27.08C128.427 26.94 128.252 26.8467 128.182 26.8C128.135 26.7767 127.983 26.7067 127.727 26.59C127.47 26.4733 127.283 26.3917 127.167 26.345C127.05 26.3217 126.863 26.2633 126.607 26.17C126.373 26.0767 126.175 26.0067 126.012 25.96C125.848 25.9367 125.662 25.9017 125.452 25.855C125.102 25.785 124.588 25.75 123.912 25.75C123.235 25.75 122.687 25.9133 122.267 26.24C121.87 26.5667 121.672 27.045 121.672 27.675C121.672 28.305 122.01 28.8067 122.687 29.18C123.363 29.5533 124.273 29.74 125.417 29.74ZM149.277 26.52C148.531 25.82 147.819 25.2833 147.142 24.91C146.466 24.56 145.637 24.385 144.657 24.385C143.701 24.385 142.942 24.56 142.382 24.91C141.799 25.2833 141.507 25.7967 141.507 26.45C141.507 27.1267 141.892 27.6633 142.662 28.06C143.409 28.48 144.296 28.69 145.322 28.69C146.349 28.69 147.259 28.5967 148.052 28.41C148.519 27.99 148.927 27.36 149.277 26.52ZM155.192 30.055C155.589 30.195 156.009 30.2883 156.452 30.335C156.896 30.3817 157.479 30.405 158.202 30.405C158.949 30.405 159.707 30.2067 160.477 29.81C161.247 29.4133 161.854 28.9467 162.297 28.41C162.764 27.8967 163.172 27.3133 163.522 26.66C163.966 25.89 164.292 25.12 164.502 24.35L165.342 24.63C164.736 26.6133 163.767 28.1883 162.437 29.355C161.131 30.5217 159.602 31.105 157.852 31.105C156.476 31.105 155.519 31 154.982 30.79C154.469 30.6033 154.096 30.475 153.862 30.405C153.629 30.3583 153.314 30.1833 152.917 29.88C152.544 29.6 152.322 29.4367 152.252 29.39C152.066 29.25 151.587 28.795 150.817 28.025C149.324 28.9117 147.714 29.355 145.987 29.355C144.261 29.355 142.942 29.075 142.032 28.515C141.122 27.9783 140.667 27.29 140.667 26.45C140.667 25.6333 141.006 24.9683 141.682 24.455C142.336 23.965 143.327 23.72 144.657 23.72C146.477 23.72 148.111 24.3967 149.557 25.75C149.837 24.8867 150.071 23.93 150.257 22.88L152.602 9.335C153.162 5.835 154.376 3.47833 156.242 2.265C157.876 1.215 159.731 0.69 161.807 0.69C163.884 0.69 165.576 1.285 166.882 2.475C168.212 3.665 168.877 5.54333 168.877 8.11H168.037C168.037 6.03333 167.536 4.45833 166.532 3.385C165.552 2.28833 164.304 1.74 162.787 1.74C160.011 1.74 158.366 3.46667 157.852 6.92C157.852 7.29333 157.549 9.21833 156.942 12.695C156.359 16.1483 155.834 19.0067 155.367 21.27C154.877 24 153.571 26.1117 151.447 27.605C152.707 28.865 153.641 29.5883 154.247 29.775C154.481 29.845 154.796 29.9383 155.192 30.055ZM179.145 24.315C177.091 24.315 175.971 23.4167 175.785 21.62C174.758 23.4167 173.463 24.315 171.9 24.315C170.336 24.315 169.088 23.8483 168.155 22.915C167.245 21.9583 166.79 20.6283 166.79 18.925C166.79 16.265 167.443 14.1767 168.75 12.66C170.056 11.1433 171.748 10.385 173.825 10.385C175.528 10.385 176.66 11.19 177.22 12.8C177.336 12.1 177.465 11.4 177.605 10.7C179.331 10.7 180.615 10.63 181.455 10.49L181.91 10.385L179.495 23.615C180.195 23.545 180.778 23.2183 181.245 22.635L181.77 23.055C181.07 23.895 180.195 24.315 179.145 24.315ZM170.745 20.71C170.745 21.76 170.873 22.495 171.13 22.915C171.41 23.3117 171.83 23.51 172.39 23.51C172.95 23.51 173.521 23.2067 174.105 22.6C174.875 21.8067 175.493 20.8033 175.96 19.59C176.03 19.2867 176.158 18.5633 176.345 17.42C176.555 16.2533 176.73 15.2967 176.87 14.55C176.8 13.6633 176.555 12.8933 176.135 12.24C175.715 11.5867 175.19 11.26 174.56 11.26C173.416 11.26 172.495 12.2867 171.795 14.34C171.095 16.37 170.745 18.4933 170.745 20.71ZM187.033 23.405C189.343 23.405 190.498 21.7017 190.498 18.295C190.498 17.455 190.369 16.4633 190.113 15.32C189.879 14.1767 189.739 13.465 189.693 13.185C188.269 14.655 186.671 15.5417 184.898 15.845V15.005C186.578 14.6317 188.153 13.675 189.623 12.135V11.995C189.623 11.435 189.704 10.8867 189.868 10.35C190.031 9.81333 190.194 9.41667 190.358 9.16L190.603 8.775H191.443C191.443 9.80167 191.606 10.7467 191.933 11.61C192.259 12.45 192.621 13.1383 193.018 13.675C193.414 14.1883 193.776 14.8767 194.103 15.74C194.429 16.58 194.593 17.5133 194.593 18.54C194.593 20.1967 193.963 21.5733 192.703 22.67C191.466 23.7667 189.973 24.315 188.223 24.315C186.473 24.315 185.143 23.9183 184.233 23.125C183.346 22.3317 182.903 21.4217 182.903 20.395C182.903 19.345 183.159 18.5983 183.673 18.155C184.186 17.6883 184.793 17.455 185.493 17.455C186.193 17.455 186.764 17.6883 187.208 18.155C187.674 18.5983 187.908 19.1817 187.908 19.905C187.908 20.605 187.686 21.2 187.243 21.69C186.799 22.18 186.228 22.425 185.528 22.425C185.224 22.425 184.909 22.3783 184.583 22.285C185.096 23.0317 185.913 23.405 187.033 23.405ZM209.753 23.615C210.313 23.615 210.897 23.2883 211.503 22.635L212.028 23.055C211.865 23.3817 211.503 23.6733 210.943 23.93C210.383 24.1867 209.765 24.315 209.088 24.315C206.965 24.315 205.903 23.3583 205.903 21.445C205.903 20.6283 206.113 19.17 206.533 17.07C206.953 14.97 207.163 13.5933 207.163 12.94C207.163 11.9367 206.685 11.435 205.728 11.435C204.935 11.435 204.165 11.9717 203.418 13.045C202.695 14.1183 202.1 15.5767 201.633 17.42L200.478 24H196.278L200.163 2.02C199.463 2.09 198.88 2.41667 198.413 3L197.888 2.58C198.588 1.74 199.463 1.32 200.513 1.32C201.587 1.32 202.415 1.58833 202.998 2.125C203.582 2.66167 203.873 3.42 203.873 4.4C203.873 4.58667 203.85 4.89 203.803 5.31L202.333 13.605C203.29 11.4583 204.772 10.385 206.778 10.385C208.155 10.385 209.228 10.7817 209.998 11.575C210.768 12.345 211.153 13.4183 211.153 14.795C211.153 15.5183 210.932 16.9183 210.488 18.995C210.045 21.0483 209.8 22.5883 209.753 23.615Z" fill="#B2195D"/>
</svg>
