<svg width="431" height="22" viewBox="0 0 431 22" fill="none" xmlns="http://www.w3.org/2000/svg">
<path d="M81.9641 9.01785L94.9963 1.05371" stroke="black" stroke-width="1.05407"/>
<path d="M94.9964 1.05469H74L82.3261 9.01883L84.4982 20.603L94.9964 1.05469Z" stroke="black" stroke-width="1.05407" stroke-linejoin="round"/>
<mask id="path-3-inside-1" fill="white">
<path fill-rule="evenodd" clip-rule="evenodd" d="M57.3837 16.0918C58.4053 14.4724 58.9964 12.5543 58.9964 10.4982C58.9964 4.7002 54.2962 0 48.4982 0C42.7002 0 38 4.7002 38 10.4982C38 16.2962 42.7002 20.9964 48.4982 20.9964C50.4908 20.9964 52.3537 20.4412 53.9407 19.4772L58.8092 20.5288L57.3837 16.0918Z"/>
</mask>
<path d="M57.3837 16.0918L56.4922 15.5294L56.2296 15.9456L56.3802 16.4142L57.3837 16.0918ZM53.9407 19.4772L54.1633 18.4469L53.7526 18.3582L53.3935 18.5763L53.9407 19.4772ZM58.8092 20.5288L58.5867 21.5591L60.3712 21.9446L59.8128 20.2064L58.8092 20.5288ZM57.9423 10.4982C57.9423 12.3495 57.4107 14.0734 56.4922 15.5294L58.2752 16.6542C59.3998 14.8714 60.0504 12.7592 60.0504 10.4982H57.9423ZM48.4982 1.05407C53.714 1.05407 57.9423 5.28234 57.9423 10.4982H60.0504C60.0504 4.11805 54.8783 -1.05407 48.4982 -1.05407V1.05407ZM39.0541 10.4982C39.0541 5.28234 43.2823 1.05407 48.4982 1.05407V-1.05407C42.1181 -1.05407 36.9459 4.11805 36.9459 10.4982H39.0541ZM48.4982 19.9423C43.2823 19.9423 39.0541 15.714 39.0541 10.4982H36.9459C36.9459 16.8783 42.1181 22.0504 48.4982 22.0504V19.9423ZM53.3935 18.5763C51.9667 19.443 50.2924 19.9423 48.4982 19.9423V22.0504C50.6892 22.0504 52.7406 21.4395 54.488 20.3781L53.3935 18.5763ZM59.0318 19.4985L54.1633 18.4469L53.7182 20.5075L58.5867 21.5591L59.0318 19.4985ZM56.3802 16.4142L57.8057 20.8512L59.8128 20.2064L58.3872 15.7693L56.3802 16.4142Z" fill="black" mask="url(#path-3-inside-1)"/>
<path d="M22.545 6.87802C22.2154 3.47174 19.6473 1.00041 16.4335 1.00041C14.2924 1.00041 12.3319 2.08215 11.2288 3.81587C10.1357 2.05972 8.25556 1 6.14876 1C2.93535 1 0.366883 3.47133 0.0376815 6.87761C0.0116234 7.02807 -0.0952151 7.8199 0.229643 9.11122C0.697822 10.9738 1.77924 12.668 3.35619 14.0094L11.2236 20.7123L19.226 14.0098C20.803 12.668 21.8844 10.9742 22.3526 9.11122C22.6774 7.82031 22.5706 7.02848 22.545 6.87802ZM21.507 8.92448C21.0796 10.6256 20.089 12.1754 18.6449 13.4035L11.2288 19.6155L3.93989 13.4052C2.49323 12.1746 1.50302 10.6252 1.07523 8.92407C0.767744 7.70207 0.894127 7.01176 0.894561 7.00727L0.901075 6.96609C1.18337 3.98182 3.39006 1.81549 6.14876 1.81549C8.18433 1.81549 9.97627 2.98978 10.8266 4.87967L11.2266 5.76977L11.6266 4.87967C12.4635 3.01873 14.3501 1.81589 16.4339 1.81589C19.1922 1.81589 21.3993 3.98223 21.6872 7.00523C21.6881 7.01176 21.8145 7.70247 21.507 8.92448Z" fill="black"/>
<path d="M415 19.5514V0.578125H429.757V19.5514L422.378 12.0411L415 19.5514Z" stroke="black" stroke-width="1.05407"/>
</svg>
